<svg width="20" height="15" viewBox="0 0 20 15" fill="none" xmlns="http://www.w3.org/2000/svg">
<path d="M16.375 1.8175C18.4375 4.88 19.4688 8.3175 19.0938 12.2863C19.0938 12.2863 19.0938 12.3175 19.0625 12.3175C17.6875 13.3488 16.125 14.13 14.4688 14.63C14.4375 14.63 14.4062 14.63 14.4062 14.63C14.0625 14.13 13.75 13.63 13.4688 13.0988V13.0675C13.4688 13.0363 13.4688 13.0363 13.5 13.005C14 12.8175 14.4688 12.5988 14.9375 12.3175C14.9688 12.3175 14.9688 12.3175 14.9688 12.2863C14.9688 12.255 14.9688 12.255 14.9375 12.2238C14.8438 12.1613 14.75 12.0988 14.6562 12.005H14.625H14.5938C11.625 13.38 8.375 13.38 5.375 12.005C5.34375 12.005 5.34375 12.005 5.34375 12.005C5.3125 12.005 5.3125 12.005 5.3125 12.005C5.21875 12.0988 5.125 12.1613 5.03125 12.2238C5 12.255 5 12.255 5 12.2863C5 12.3175 5 12.3175 5.03125 12.3175C5.46875 12.5988 5.96875 12.8175 6.46875 13.005C6.46875 13.0363 6.5 13.0363 6.5 13.0675V13.0988C6.21875 13.63 5.90625 14.13 5.5625 14.63C5.53125 14.63 5.53125 14.63 5.5 14.63C3.8125 14.13 2.25 13.3488 0.90625 12.3175C0.875 12.3175 0.875 12.2863 0.875 12.2863C0.5625 8.84875 1.21875 5.38 3.59375 1.8175C3.59375 1.8175 3.59375 1.8175 3.625 1.8175C4.78125 1.28625 6.0625 0.880005 7.34375 0.661255C7.34375 0.661255 7.34375 0.661255 7.375 0.661255H7.40625C7.59375 0.973755 7.75 1.3175 7.875 1.63C8.5625 1.53625 9.25 1.47375 9.96875 1.47375C10.6875 1.47375 11.4062 1.53625 12.0938 1.63C12.2188 1.3175 12.375 0.973755 12.5625 0.661255L12.5938 0.630005C12.5938 0.630005 12.5938 0.661255 12.625 0.661255C13.9062 0.880005 15.1875 1.28625 16.3438 1.8175C16.375 1.8175 16.375 1.8175 16.375 1.8175ZM6.9375 10.1925C7.84375 10.1925 8.59375 9.34875 8.59375 8.34875C8.59375 7.3175 7.875 6.505 6.9375 6.505C6.03125 6.505 5.28125 7.3175 5.28125 8.34875C5.28125 9.34875 6.03125 10.1925 6.9375 10.1925ZM13.0312 10.1925C13.9688 10.1925 14.6875 9.34875 14.6875 8.34875C14.7188 7.3175 13.9688 6.505 13.0312 6.505C12.125 6.505 11.4062 7.3175 11.4062 8.34875C11.4062 9.34875 12.125 10.1925 13.0312 10.1925Z" fill="#FDFDFF"/>
</svg>
