<svg width="15" height="15" viewBox="0 0 15 15" fill="none" xmlns="http://www.w3.org/2000/svg">
<path d="M8 4.03625C9.96875 4.03625 11.5938 5.66125 11.5938 7.63C11.5938 9.63 9.96875 11.2238 8 11.2238C6 11.2238 4.40625 9.63 4.40625 7.63C4.40625 5.66125 6 4.03625 8 4.03625ZM8 9.97375C9.28125 9.97375 10.3125 8.9425 10.3125 7.63C10.3125 6.34875 9.28125 5.3175 8 5.3175C6.6875 5.3175 5.65625 6.34875 5.65625 7.63C5.65625 8.9425 6.71875 9.97375 8 9.97375ZM12.5625 3.91125C12.5625 4.38 12.1875 4.755 11.7188 4.755C11.25 4.755 10.875 4.38 10.875 3.91125C10.875 3.4425 11.25 3.0675 11.7188 3.0675C12.1875 3.0675 12.5625 3.4425 12.5625 3.91125ZM14.9375 4.755C15 5.91125 15 9.38 14.9375 10.5363C14.875 11.6613 14.625 12.63 13.8125 13.4738C13 14.2863 12 14.5363 10.875 14.5988C9.71875 14.6613 6.25 14.6613 5.09375 14.5988C3.96875 14.5363 3 14.2863 2.15625 13.4738C1.34375 12.63 1.09375 11.6613 1.03125 10.5363C0.96875 9.38 0.96875 5.91125 1.03125 4.755C1.09375 3.63 1.34375 2.63 2.15625 1.8175C3 1.005 3.96875 0.755005 5.09375 0.692505C6.25 0.630005 9.71875 0.630005 10.875 0.692505C12 0.755005 13 1.005 13.8125 1.8175C14.625 2.63 14.875 3.63 14.9375 4.755ZM13.4375 11.755C13.8125 10.8488 13.7188 8.66125 13.7188 7.63C13.7188 6.63 13.8125 4.4425 13.4375 3.505C13.1875 2.91125 12.7188 2.41125 12.125 2.1925C11.1875 1.8175 9 1.91125 8 1.91125C6.96875 1.91125 4.78125 1.8175 3.875 2.1925C3.25 2.4425 2.78125 2.91125 2.53125 3.505C2.15625 4.4425 2.25 6.63 2.25 7.63C2.25 8.66125 2.15625 10.8488 2.53125 11.755C2.78125 12.38 3.25 12.8488 3.875 13.0988C4.78125 13.4738 6.96875 13.38 8 13.38C9 13.38 11.1875 13.4738 12.125 13.0988C12.7188 12.8488 13.2188 12.38 13.4375 11.755Z" fill="#FDFDFF"/>
</svg>
