<svg width="17" height="16" viewBox="0 0 17 16" fill="none" xmlns="http://www.w3.org/2000/svg">
<path d="M8.4999 5.35002C10.0437 5.35002 11.3499 6.65627 11.3499 8.20002C11.3499 9.77346 10.0437 11.05 8.4999 11.05C6.92646 11.05 5.6499 9.77346 5.6499 8.20002C5.6499 6.65627 6.92646 5.35002 8.4999 5.35002ZM15.803 7.75471C16.189 7.93284 16.189 8.4969 15.803 8.67502L12.9827 10.0703L13.9921 13.0688C14.1108 13.4547 13.7249 13.8406 13.339 13.7219L10.3405 12.7125L8.94521 15.5328C8.76709 15.9188 8.20303 15.9188 8.0249 15.5328L6.62959 12.7125L3.63115 13.7219C3.24521 13.8406 2.85928 13.4547 2.97803 13.0688L3.9874 10.0703L1.16709 8.67502C0.781152 8.4969 0.781152 7.93284 1.16709 7.75471L3.9874 6.3594L2.97803 3.36096C2.85928 2.97502 3.24521 2.58909 3.63115 2.70784L6.62959 3.71721L8.0249 0.8969C8.20303 0.510962 8.76709 0.510962 8.94521 0.8969L10.3405 3.71721L13.339 2.70784C13.7249 2.58909 14.1108 2.97502 13.9921 3.36096L12.9827 6.3594L15.803 7.75471ZM11.1718 10.9016C12.6562 9.41721 12.6562 7.01252 11.1718 5.52815C9.6874 4.04377 7.28271 4.04377 5.79834 5.52815C4.31396 7.01252 4.31396 9.41721 5.79834 10.9016C7.28271 12.386 9.6874 12.386 11.1718 10.9016Z" fill="white"/>
</svg>
